<svg width="72" height="72" viewBox="0 0 72 72" fill="none" xmlns="http://www.w3.org/2000/svg">
<path d="M46.4539 13.3571C51.1145 12.8733 56.7371 12.4827 58.4171 12.3659C60.0971 12.2492 60.9278 11.0713 60.8614 10.1157C60.795 9.16014 60.6016 8.69348 57.7238 8.73337C56.7941 8.74626 48.3361 7.77455 41.9811 8.00266C40.3885 8.1133 23.2809 8.34159 11.2144 7.4195M46.4539 13.3571C46.4738 12.8756 46.1535 12.2577 44.6246 12.3639C42.7134 12.4967 34.3021 12.6376 31.9653 12.1232M46.4539 13.3571C46.3883 13.9484 45.9992 15.5651 44.879 16.027C43.4789 16.6044 38.3713 16.7992 36.5266 17.8875C34.6818 18.9759 32.3592 20.0974 28.8444 20.1815C27.7295 20.259 25.0362 20.1901 23.1816 19.2947C20.8634 18.1755 14.8775 16.092 11.2144 16.3464" stroke="#221F1C" stroke-width="1.5" stroke-linecap="round" stroke-linejoin="round"/>
<path d="M35.731 31.9275C36.1912 27.2645 36.5534 21.64 36.6616 19.9595C36.7699 18.2789 37.9436 17.4423 38.8995 17.5038C39.8554 17.5654 40.323 17.7565 40.2977 20.6344C40.2895 21.5642 41.3039 30.0215 41.1079 36.3776C41.0053 37.9707 40.8634 55.0793 41.8465 67.1409M35.731 31.9275C36.2123 31.9052 36.8318 32.2224 36.7333 33.7518C36.6102 35.6636 36.195 44.5957 37.038 46.4097M35.731 31.9275C35.14 31.9961 33.5253 32.3934 33.069 33.5159C32.4987 34.9189 32.3298 40.0274 31.2507 41.8776C30.1717 43.7279 29.0619 46.0561 28.9955 49.5713C28.9237 50.6865 29.0063 53.3795 29.911 55.2295C31.0419 57.542 33.1601 63.4766 32.9241 67.1409" stroke="#221F1C" stroke-width="1.5" stroke-linecap="round" stroke-linejoin="round"/>
</svg>
