<svg width="24" height="24" viewBox="0 0 24 24" fill="none" xmlns="http://www.w3.org/2000/svg">
<g clip-path="url(#clip0_759_346)">
<path d="M2.182 0C1 0 0.037 0.94 0.002 2.114L0 2.182V8.727C0 9.3057 0.229889 9.8607 0.639093 10.2699C1.0483 10.6791 1.6033 10.909 2.182 10.909C2.7607 10.909 3.3157 10.6791 3.72491 10.2699C4.13411 9.8607 4.364 9.3057 4.364 8.727V2.182C4.364 1.6033 4.13411 1.0483 3.72491 0.639093C3.3157 0.229889 2.7607 0 2.182 0ZM8.727 0C7.545 0 6.582 0.94 6.547 2.114L6.545 2.182V15.272C6.545 15.8507 6.77489 16.4057 7.18409 16.8149C7.5933 17.2241 8.1483 17.454 8.727 17.454C9.3057 17.454 9.8607 17.2241 10.2699 16.8149C10.6791 16.4057 10.909 15.8507 10.909 15.272V2.183C10.9091 1.89637 10.8528 1.61253 10.7432 1.34768C10.6336 1.08283 10.4729 0.84217 10.2703 0.639446C10.0676 0.436723 9.82704 0.275909 9.56225 0.16619C9.29745 0.0564722 9.01363 -3.01009e-08 8.727 0ZM15.273 0C14.6943 0 14.1393 0.229889 13.7301 0.639093C13.3209 1.0483 13.091 1.6033 13.091 2.182C13.091 2.7607 13.3209 3.3157 13.7301 3.72491C14.1393 4.13411 14.6943 4.364 15.273 4.364C15.8517 4.364 16.4067 4.13411 16.8159 3.72491C17.2251 3.3157 17.455 2.7607 17.455 2.182C17.455 1.6033 17.2251 1.0483 16.8159 0.639093C16.4067 0.229889 15.8517 0 15.273 0ZM21.818 0C20.636 0 19.673 0.94 19.638 2.114L19.636 2.182V21.818C19.636 22.3967 19.8659 22.9517 20.2751 23.3609C20.6843 23.7701 21.2393 24 21.818 24C22.3967 24 22.9517 23.7701 23.3609 23.3609C23.7701 22.9517 24 22.3967 24 21.818V2.182C24 1.6033 23.7701 1.0483 23.3609 0.639093C22.9517 0.229889 22.3967 0 21.818 0ZM15.273 6.545C14.09 6.545 13.128 7.485 13.092 8.659L13.091 8.727V21.818C13.091 22.3967 13.3209 22.9517 13.7301 23.3609C14.1393 23.7701 14.6943 24 15.273 24C15.8517 24 16.4067 23.7701 16.8159 23.3609C17.2251 22.9517 17.455 22.3967 17.455 21.818V8.728C17.4551 8.44137 17.3988 8.15753 17.2892 7.89268C17.1796 7.62783 17.0189 7.38717 16.8163 7.18445C16.6136 6.98172 16.373 6.82091 16.1082 6.71119C15.8434 6.60147 15.5596 6.545 15.273 6.545ZM2.182 13.091C1 13.091 0.037 14.031 0.002 15.205L0 15.273V21.818C0 22.3967 0.229889 22.9517 0.639093 23.3609C1.0483 23.7701 1.6033 24 2.182 24C2.7607 24 3.3157 23.7701 3.72491 23.3609C4.13411 22.9517 4.364 22.3967 4.364 21.818V15.273C4.364 14.6943 4.13411 14.1393 3.72491 13.7301C3.3157 13.3209 2.7607 13.091 2.182 13.091ZM8.727 19.636C8.1483 19.636 7.5933 19.8659 7.18409 20.2751C6.77489 20.6843 6.545 21.2393 6.545 21.818C6.545 22.1045 6.60144 22.3883 6.71109 22.653C6.82075 22.9177 6.98148 23.1583 7.18409 23.3609C7.38671 23.5635 7.62725 23.7242 7.89198 23.8339C8.15672 23.9436 8.44046 24 8.727 24C9.3057 24 9.8607 23.7701 10.2699 23.3609C10.6791 22.9517 10.909 22.3967 10.909 21.818C10.909 21.2393 10.6791 20.6843 10.2699 20.2751C9.8607 19.8659 9.3057 19.636 8.727 19.636Z" fill="#221F1C"/>
</g>
<defs>
<clipPath id="clip0_759_346">
<rect width="24" height="24" fill="white"/>
</clipPath>
</defs>
</svg>
