<svg width="24" height="24" viewBox="0 0 24 24" fill="none" xmlns="http://www.w3.org/2000/svg">
<path d="M0.0224609 13.5906H2.29924V16.0281H14.4005V13.5906H16.6772V18.4124H0.0256639V13.5906H0.0224609Z" fill="#221F1C"/>
<path d="M13.1387 9.21882C13.0395 9.21882 12.8666 9.24381 12.62 9.29069L11.1021 9.63443C10.9036 9.6813 10.6954 9.70631 10.4745 9.70631C9.96853 9.70631 9.52661 9.54694 9.15193 9.22819C8.77732 8.90945 8.5083 8.46258 8.34824 7.88447C8.24894 8.46258 8.02156 8.91257 7.66293 9.23756C7.30427 9.56255 6.86877 9.72505 6.35002 9.72505C6.15148 9.72505 5.8985 9.69381 5.59109 9.63443L4.07323 9.29069C3.80104 9.24381 3.62171 9.21882 3.53526 9.21882C3.14138 9.21882 2.83397 9.33444 2.61942 9.56256C2.40487 9.79068 2.29599 10.1157 2.29599 10.5375L2.27678 11.1688H0V10.6438C0 9.45318 0.268988 8.51258 0.803759 7.82822C1.33853 7.14386 2.07184 6.80011 2.99728 6.80011C3.26947 6.80011 3.52245 6.82512 3.75621 6.87199L5.42137 7.17823C5.54305 7.21573 5.72878 7.23136 5.97535 7.23136C6.77591 7.23136 7.189 6.68449 7.21461 5.58765H9.47222C9.48498 6.12826 9.59385 6.54075 9.79562 6.82512C9.99732 7.10949 10.3048 7.25011 10.7114 7.25011C10.8972 7.25011 11.0797 7.22511 11.2654 7.17823L12.9306 6.87199C13.1644 6.82512 13.4174 6.80011 13.6895 6.80011C14.615 6.80011 15.345 7.14386 15.8831 7.82822C16.421 8.5157 16.6868 9.45318 16.6868 10.6438V11.1688H14.41L14.3908 10.5375C14.3908 10.1157 14.2787 9.79068 14.0578 9.56256C13.8368 9.33444 13.5262 9.21882 13.1323 9.21882H13.1387Z" fill="#221F1C"/>
<path d="M16.6924 11.1906L23.9998 8.22821V10.6844L19.5968 12.3812L23.9998 14.0781V16.5343L16.6924 13.5719V11.1875V11.1906Z" fill="#221F1C"/>
</svg>
